# xmcd
#
# Track frame offsets: 
#        150
#        17109
#        35070
#        45181
#        62917
#        76524
#        91495
#        111806
#        140707
#        155279
#        181596
#        199890
#
# Disc length: 2770 seconds
#
# Revision: 0
# Processed by: cddbd v1.5.2PL0 Copyright (c) Steve Scherf et al.
# Submitted via: ExactAudioCopy v0.99pb4
#
DISCID=930ad00c
DTITLE=Pickin' Up Steam - Waltz For Mom
DYEAR=2008
DGENRE=Bluegrass
TTITLE0=You're Gonna Make Me Lonesome When You Go
TTITLE1=Red Haired Boy
TTITLE2=Salty Dog Blues
TTITLE3=Found My Way Back
TTITLE4=Waltz For Mom
TTITLE5=The Immigrant
TTITLE6=The Dying Soldier
TTITLE7=Little Maggie
TTITLE8=Ashes of Love
TTITLE9=Tapioca
TTITLE10=Will the Circle be Unbroken
TTITLE11=Jesse James
EXTD=
EXTT0=
EXTT1=
EXTT2=
EXTT3=
EXTT4=
EXTT5=
EXTT6=
EXTT7=
EXTT8=
EXTT9=
EXTT10=
EXTT11=
PLAYORDER=
